<svg width="51" height="51" viewBox="0 0 51 51" fill="none" xmlns="http://www.w3.org/2000/svg">
<rect width="51" height="51" rx="5" fill="url(#paint0_linear_845_609)"/>
<path d="M0 22C0 15.9249 4.92487 11 11 11H51V46C51 48.7614 48.7614 51 46 51H5C2.23858 51 0 48.7614 0 46V22Z" fill="url(#paint1_linear_845_609)" fill-opacity="0.6"/>
<path d="M18.5 37C17.1322 37 16 35.3802 16 34.0977V15.3442C16 14.0616 17.1322 13 18.5 13H33.5C34.8678 13 36 14.0616 36 15.3442V29.4093L28.2222 37H18.5ZM18.5 34.0977H27.25V28.2372H33.5V15.3442H18.5V34.0977ZM21 24.7209V22.3767H31V24.7209H21ZM21 20.0326V17.6884H31V20.0326H21Z" fill="#FDC578"/>
<defs>
<linearGradient id="paint0_linear_845_609" x1="0" y1="25.5" x2="51" y2="25.5" gradientUnits="userSpaceOnUse">
<stop stop-color="#7DBF43"/>
<stop offset="1" stop-color="#2C410F"/>
</linearGradient>
<linearGradient id="paint1_linear_845_609" x1="0" y1="31" x2="51" y2="31" gradientUnits="userSpaceOnUse">
<stop stop-color="#7DBF43"/>
<stop offset="1" stop-color="#3A591F"/>
</linearGradient>
</defs>
</svg>
