<svg width="307" height="94" viewBox="0 0 307 94" fill="none" xmlns="http://www.w3.org/2000/svg">
<g clip-path="url(#clip0_56_222)">
<rect width="390" height="98" rx="25" fill="url(#paint0_linear_56_222)"/>
<rect y="19" width="307" height="75" rx="25" fill="url(#paint1_linear_56_222)" fill-opacity="0.7"/>
<rect x="27.3281" y="1.99841" width="34.9348" height="176.327" transform="rotate(-40 27.3281 1.99841)" fill="url(#paint2_linear_56_222)"/>
<rect x="-18" y="9.83923" width="23.0858" height="134.204" transform="rotate(-40 -18 9.83923)" fill="url(#paint3_linear_56_222)"/>
<path d="M282 20H234V56H278.49L282 59.51V20ZM282 14C285.3 14 287.97 16.7 287.97 20L288 74L276 62H234C230.7 62 228 59.3 228 56V20C228 16.7 230.7 14 234 14H282ZM276 44H240V50H276V44ZM276 35H240V41H276V35ZM276 26H240V32H276V26Z" fill="#9B383A" fill-opacity="0.4"/>
</g>
<defs>
<linearGradient id="paint0_linear_56_222" x1="0" y1="49" x2="390" y2="49" gradientUnits="userSpaceOnUse">
<stop stop-color="#AF252B"/>
<stop offset="1" stop-color="#651C1D"/>
</linearGradient>
<linearGradient id="paint1_linear_56_222" x1="0" y1="56.5" x2="307" y2="56.5" gradientUnits="userSpaceOnUse">
<stop stop-color="#AF3230"/>
<stop offset="1" stop-color="#772023"/>
</linearGradient>
<linearGradient id="paint2_linear_56_222" x1="44.7955" y1="1.99841" x2="44.7955" y2="178.325" gradientUnits="userSpaceOnUse">
<stop stop-color="#AC2227"/>
<stop offset="1" stop-color="#781D20"/>
</linearGradient>
<linearGradient id="paint3_linear_56_222" x1="-6.4571" y1="9.83923" x2="-6.4571" y2="144.044" gradientUnits="userSpaceOnUse">
<stop stop-color="#AC2227"/>
<stop offset="1" stop-color="#781D20"/>
</linearGradient>
<clipPath id="clip0_56_222">
<rect width="307" height="94" rx="25" fill="white"/>
</clipPath>
</defs>
</svg>
