<svg width="51" height="51" viewBox="0 0 51 51" fill="none" xmlns="http://www.w3.org/2000/svg">
<rect width="51" height="51" rx="5" fill="url(#paint0_linear_845_618)"/>
<path d="M0 22C0 15.9249 4.92487 11 11 11H51V46C51 48.7614 48.7614 51 46 51H5C2.23858 51 0 48.7614 0 46V22Z" fill="url(#paint1_linear_845_618)" fill-opacity="0.6"/>
<path d="M26 13.5C26.1286 13.5 26.256 13.5376 26.3672 13.6094C26.4784 13.6813 26.5697 13.7852 26.6289 13.9111L26.6299 13.9131L26.9062 14.4951L27.0244 14.7441L27.2979 14.7773L27.8975 14.8496C28.0235 14.8686 28.1439 14.9231 28.2441 15.0098C28.3447 15.0967 28.4215 15.2132 28.4639 15.3457C28.5061 15.4781 28.5112 15.621 28.4795 15.7568C28.4481 15.8911 28.3821 16.0123 28.29 16.1074L27.833 16.5654L27.6514 16.748L27.6943 17.0029L27.8018 17.6289V17.6299C27.824 17.7682 27.8082 17.9103 27.7568 18.0391C27.7055 18.1675 27.6213 18.2766 27.5156 18.3555C27.4099 18.4343 27.2863 18.4807 27.1592 18.4902C27.0323 18.4996 26.9045 18.4719 26.79 18.4102L26.2363 18.1133L26 17.9854L25.7637 18.1133L25.21 18.4102L25.2041 18.4141C25.1036 18.4699 24.9922 18.4984 24.8799 18.499H24.8721L24.8652 18.5C24.7232 18.505 24.5823 18.4685 24.4561 18.3975C24.3577 18.3175 24.2785 18.2122 24.2314 18.0879C24.1938 17.9885 24.1773 17.8816 24.1826 17.7754L24.1953 17.6689L24.1973 17.6582L24.3057 17.0137L24.3486 16.7559L24.1621 16.5732L23.7051 16.127C23.6155 16.0325 23.5513 15.9133 23.5205 15.7812C23.4888 15.6453 23.4938 15.5026 23.5361 15.3701C23.5784 15.2378 23.6555 15.1221 23.7559 15.0352C23.8562 14.9483 23.9773 14.8929 24.1035 14.874L24.1084 14.873L24.7217 14.7744L24.9805 14.7324L25.0938 14.4951L25.3701 13.9131L25.3711 13.9111C25.4303 13.7852 25.5216 13.6813 25.6328 13.6094C25.744 13.5376 25.8714 13.5 26 13.5Z" stroke="#FDC578"/>
<path d="M15.2002 26.9229H20C20.0448 26.9229 20.0932 26.9409 20.1328 26.9814C20.1732 27.0229 20.2002 27.0851 20.2002 27.1543V35.7695C20.2001 35.8386 20.1731 35.9 20.1328 35.9414C20.0932 35.982 20.0448 36 20 36H15.2002C15.1554 36 15.107 35.982 15.0674 35.9414C15.0271 35.9 15.0001 35.8386 15 35.7695V27.1543C15 27.085 15.027 27.0229 15.0674 26.9814C15.1069 26.9409 15.1555 26.9229 15.2002 26.9229ZM23.5996 22H28.4004C28.445 22.0001 28.4928 22.0182 28.5322 22.0586C28.5726 22.1 28.5995 22.1613 28.5996 22.2305V35.7695C28.5995 35.8387 28.5726 35.9 28.5322 35.9414C28.4928 35.9818 28.445 35.9999 28.4004 36H23.5996C23.555 35.9999 23.5072 35.9818 23.4678 35.9414C23.4274 35.9 23.4005 35.8387 23.4004 35.7695V22.2305C23.4005 22.1613 23.4274 22.1 23.4678 22.0586C23.5072 22.0182 23.555 22.0001 23.5996 22ZM32 29.3848H36.7998C36.8446 29.3848 36.893 29.4028 36.9326 29.4434C36.9729 29.4848 37 29.5461 37 29.6152V35.7695C36.9999 35.8386 36.9729 35.9 36.9326 35.9414C36.893 35.982 36.8446 36 36.7998 36H32C31.9552 36 31.9068 35.982 31.8672 35.9414C31.8269 35.9 31.7999 35.8386 31.7998 35.7695V29.6152C31.7998 29.5462 31.8269 29.4848 31.8672 29.4434C31.9068 29.4028 31.9552 29.3848 32 29.3848Z" stroke="#FDC578" stroke-width="2"/>
<defs>
<linearGradient id="paint0_linear_845_618" x1="0" y1="25.5" x2="51" y2="25.5" gradientUnits="userSpaceOnUse">
<stop stop-color="#7DBF43"/>
<stop offset="1" stop-color="#2C410F"/>
</linearGradient>
<linearGradient id="paint1_linear_845_618" x1="0" y1="31" x2="51" y2="31" gradientUnits="userSpaceOnUse">
<stop stop-color="#7DBF43"/>
<stop offset="1" stop-color="#3A591F"/>
</linearGradient>
</defs>
</svg>
