<svg width="51" height="51" viewBox="0 0 51 51" fill="none" xmlns="http://www.w3.org/2000/svg">
<rect width="51" height="51" rx="5" fill="url(#paint0_linear_845_612)"/>
<path d="M0 22C0 15.9249 4.92487 11 11 11H51V46C51 48.7614 48.7614 51 46 51H5C2.23858 51 0 48.7614 0 46V22Z" fill="url(#paint1_linear_845_612)" fill-opacity="0.6"/>
<path d="M25.5 13C23.8585 13 22.233 13.3233 20.7165 13.9515C19.1999 14.5797 17.8219 15.5004 16.6612 16.6612C14.317 19.0054 13 22.1848 13 25.5C13 28.8152 14.317 31.9946 16.6612 34.3388C17.8219 35.4996 19.1999 36.4203 20.7165 37.0485C22.233 37.6767 23.8585 38 25.5 38C28.8152 38 31.9946 36.683 34.3388 34.3388C36.683 31.9946 38 28.8152 38 25.5C38 23.8585 37.6767 22.233 37.0485 20.7165C36.4203 19.1999 35.4996 17.8219 34.3388 16.6612C33.1781 15.5004 31.8001 14.5797 30.2835 13.9515C28.767 13.3233 27.1415 13 25.5 13ZM19.3375 33.35C19.875 32.225 23.15 31.125 25.5 31.125C27.85 31.125 31.125 32.225 31.6625 33.35C29.9625 34.7 27.825 35.5 25.5 35.5C23.175 35.5 21.0375 34.7 19.3375 33.35ZM33.45 31.5375C31.6625 29.3625 27.325 28.625 25.5 28.625C23.675 28.625 19.3375 29.3625 17.55 31.5375C16.275 29.875 15.5 27.775 15.5 25.5C15.5 19.9875 19.9875 15.5 25.5 15.5C31.0125 15.5 35.5 19.9875 35.5 25.5C35.5 27.775 34.725 29.875 33.45 31.5375ZM25.5 18C23.075 18 21.125 19.95 21.125 22.375C21.125 24.8 23.075 26.75 25.5 26.75C27.925 26.75 29.875 24.8 29.875 22.375C29.875 19.95 27.925 18 25.5 18ZM25.5 24.25C25.0027 24.25 24.5258 24.0525 24.1742 23.7008C23.8225 23.3492 23.625 22.8723 23.625 22.375C23.625 21.8777 23.8225 21.4008 24.1742 21.0492C24.5258 20.6975 25.0027 20.5 25.5 20.5C25.9973 20.5 26.4742 20.6975 26.8258 21.0492C27.1775 21.4008 27.375 21.8777 27.375 22.375C27.375 22.8723 27.1775 23.3492 26.8258 23.7008C26.4742 24.0525 25.9973 24.25 25.5 24.25Z" fill="#FDC578"/>
<defs>
<linearGradient id="paint0_linear_845_612" x1="0" y1="25.5" x2="51" y2="25.5" gradientUnits="userSpaceOnUse">
<stop stop-color="#7DBF43"/>
<stop offset="1" stop-color="#2C410F"/>
</linearGradient>
<linearGradient id="paint1_linear_845_612" x1="0" y1="31" x2="51" y2="31" gradientUnits="userSpaceOnUse">
<stop stop-color="#7DBF43"/>
<stop offset="1" stop-color="#3A591F"/>
</linearGradient>
</defs>
</svg>
