<svg width="51" height="51" viewBox="0 0 51 51" fill="none" xmlns="http://www.w3.org/2000/svg">
<rect width="51" height="51" rx="5" fill="url(#paint0_linear_845_626)"/>
<path d="M0 22C0 15.9249 4.92487 11 11 11H51V46C51 48.7614 48.7614 51 46 51H5C2.23858 51 0 48.7614 0 46V22Z" fill="url(#paint1_linear_845_626)" fill-opacity="0.6"/>
<path d="M18.5 13C17.1322 13 16 14.0869 16 15.4V34.6C16 35.9131 17.1322 37 18.5 37H33.5C34.8678 37 36 35.9131 36 34.6V20.2L28.5 13H18.5ZM18.5 15.4H27.25V21.4H33.5V34.6H18.5V15.4Z" fill="#FDC578"/>
<defs>
<linearGradient id="paint0_linear_845_626" x1="0" y1="25.5" x2="51" y2="25.5" gradientUnits="userSpaceOnUse">
<stop stop-color="#7DBF43"/>
<stop offset="1" stop-color="#2C410F"/>
</linearGradient>
<linearGradient id="paint1_linear_845_626" x1="0" y1="31" x2="51" y2="31" gradientUnits="userSpaceOnUse">
<stop stop-color="#7DBF43"/>
<stop offset="1" stop-color="#3A591F"/>
</linearGradient>
</defs>
</svg>
