<svg width="16" height="20" viewBox="0 0 16 20" fill="none" xmlns="http://www.w3.org/2000/svg">
<g id="Frame 427318907">
<path id="Vector" d="M2.47437 9.22713L3.43703 9.66754C3.50634 9.53005 3.54234 9.37954 3.54234 9.22713H2.47437ZM1.06796 12.0149L0.105313 11.5745C0.0207866 11.7421 -0.0139013 11.9286 0.00503729 12.1136L1.06796 12.0149ZM3.09496 14.5492L3.55063 13.6294C3.52211 13.6166 3.49302 13.605 3.46343 13.5947L3.09496 14.5492ZM8.10143 15.6339L8.09531 16.6509H8.10741L8.10143 15.6339ZM13.1078 14.5492L12.6671 13.6228L12.6521 13.6294L13.1078 14.5492ZM14.5975 13.4454L15.4304 14.0821C15.4723 14.0324 15.5091 13.9791 15.5405 13.9229L14.5975 13.4454ZM14.4309 10.621L13.4537 11.0311C13.4806 11.0892 13.5132 11.145 13.5509 11.1973L14.4309 10.621ZM13.6271 7.68001L14.6902 7.58374C14.6891 7.57276 14.6878 7.56177 14.6864 7.55079L13.6271 7.68001ZM8.10143 18.9831L8.08662 19.9999C8.09645 20 8.10627 20 8.1161 19.9999L8.10143 18.9831ZM8.10001 1.21627C5.80573 1.21627 4.07126 2.16346 2.95136 3.70365C1.86571 5.19675 1.40641 7.17249 1.40641 9.22713H3.54234C3.54234 7.42144 3.95216 5.90021 4.70745 4.86144C5.42851 3.86977 6.50689 3.25017 8.10001 3.25017V1.21627ZM1.51172 8.78673L0.105313 11.5745L2.03061 12.4553L3.43703 9.66754L1.51172 8.78673ZM0.00503729 12.1136C0.162 13.6471 1.211 14.9732 2.7265 15.5036L3.46343 13.5947C2.73937 13.3412 2.21059 12.6948 2.13089 11.9162L0.00503729 12.1136ZM2.63931 15.4689C4.35 16.2374 6.21028 16.6407 8.09531 16.6509L8.10741 14.617C6.5348 14.6086 4.98132 14.2722 3.55063 13.6294L2.63931 15.4689ZM8.10741 16.6509C9.99259 16.6407 11.8527 16.2374 13.5634 15.4689L12.6521 13.6294C11.2215 14.2722 9.66793 14.6086 8.09531 14.617L8.10741 16.6509ZM13.5485 15.4756C14.281 15.1595 14.925 14.6815 15.4304 14.0821L13.7646 12.8088C13.4669 13.1622 13.0905 13.4402 12.6671 13.6228L13.5485 15.4756ZM15.5405 13.9229C16.2269 12.6934 16.1394 11.1919 15.3108 10.0448L13.5509 11.1973C13.9265 11.7173 13.9681 12.4063 13.6546 12.968L15.5405 13.9229ZM15.4082 10.211C15.0237 9.38008 14.7811 8.49249 14.6902 7.58374L12.5638 7.77628C12.6762 8.9009 12.9766 10.0003 13.4537 11.0311L15.4082 10.211ZM14.6864 7.55079C14.459 5.85993 13.8568 4.28201 12.7595 3.11068C11.6365 1.91188 10.0644 1.21627 8.10001 1.21627V3.25017C9.48566 3.25017 10.4675 3.71931 11.1656 4.46459C11.8894 5.23732 12.3759 6.3828 12.5677 7.80923L14.6864 7.55079ZM9.16798 2.23322V0H7.03204V2.23322H9.16798ZM3.95708 18.6909C5.164 19.5229 6.60357 19.9804 8.08662 19.9999L8.1161 17.9663C7.0769 17.9526 6.06347 17.632 5.20949 17.0434L3.95708 18.6909ZM8.1161 19.9999C9.59915 19.9804 11.0388 19.5229 12.2457 18.6909L10.9932 17.0434C10.1393 17.632 9.12597 17.9526 8.08662 17.9663L8.1161 19.9999Z" fill="#787878"/>
</g>
</svg>
