<svg width="38" height="40" viewBox="0 0 38 40" fill="none" xmlns="http://www.w3.org/2000/svg">
<path d="M27.2083 14L19 18.125L10.7917 14L0.625 34.2917L6.95833 33.6667L10.2083 39.125L19 21.625L27.7917 39.125L31.0417 33.6667L37.375 34.2917L27.2083 14Z" fill="#E24255"/>
<path d="M19 27.7501C26.4098 27.7501 32.4166 21.7432 32.4166 14.3334C32.4166 6.92359 26.4098 0.916748 19 0.916748C11.5902 0.916748 5.58331 6.92359 5.58331 14.3334C5.58331 21.7432 11.5902 27.7501 19 27.7501Z" fill="#FFC54D"/>
<path d="M19 24.8751C24.822 24.8751 29.5416 20.1554 29.5416 14.3334C29.5416 8.51141 24.822 3.79175 19 3.79175C13.178 3.79175 8.45831 8.51141 8.45831 14.3334C8.45831 20.1554 13.178 24.8751 19 24.8751Z" fill="#E8B04B"/>
<path d="M19.5485 8.3125L21.2985 11.8125C21.3818 11.9792 21.5485 12.1042 21.7151 12.1458L25.5901 12.7292C26.0485 12.8125 26.2568 13.3542 25.9235 13.6875L23.1318 16.4375C23.0068 16.5625 22.9235 16.7708 22.9651 16.9375L23.6318 20.8125C23.7151 21.2708 23.2151 21.6458 22.7985 21.3958L19.3401 19.5625C19.1735 19.4792 18.9651 19.4792 18.7985 19.5625L15.2985 21.3958C14.8818 21.6042 14.3818 21.2708 14.4651 20.8125L15.1318 16.9375C15.1735 16.7708 15.0901 16.5625 14.9651 16.4375L12.1735 13.6875C11.8401 13.3542 12.0068 12.7708 12.5068 12.7292L16.3818 12.1458C16.5485 12.1042 16.7151 12.0208 16.7985 11.8125L18.5485 8.3125C18.7568 7.89583 19.3401 7.89583 19.5485 8.3125Z" fill="white"/>
</svg>
