<svg width="22" height="22" viewBox="0 0 22 22" fill="none" xmlns="http://www.w3.org/2000/svg">
<g id="back-svgrepo-com (1) 1">
<path id="Vector" d="M4.8125 10.3125H18.5625C18.7448 10.3125 18.9197 10.3849 19.0486 10.5139C19.1776 10.6428 19.25 10.8177 19.25 11C19.25 11.1823 19.1776 11.3572 19.0486 11.4861C18.9197 11.6151 18.7448 11.6875 18.5625 11.6875H4.8125C4.63016 11.6875 4.4553 11.6151 4.32636 11.4861C4.19743 11.3572 4.125 11.1823 4.125 11C4.125 10.8177 4.19743 10.6428 4.32636 10.5139C4.4553 10.3849 4.63016 10.3125 4.8125 10.3125Z" fill="#787878"/>
<path id="Vector_2" d="M5.09713 10.9999L10.7993 16.7006C10.9284 16.8297 11.0009 17.0048 11.0009 17.1874C11.0009 17.37 10.9284 17.545 10.7993 17.6741C10.6702 17.8032 10.4951 17.8758 10.3125 17.8758C10.1299 17.8758 9.95485 17.8032 9.82576 17.6741L3.63826 11.4866C3.57423 11.4228 3.52344 11.3469 3.48878 11.2634C3.45412 11.1799 3.43628 11.0903 3.43628 10.9999C3.43628 10.9095 3.45412 10.8199 3.48878 10.7364C3.52344 10.6529 3.57423 10.577 3.63826 10.5131L9.82576 4.32564C9.95485 4.19655 10.1299 4.12402 10.3125 4.12402C10.4951 4.12402 10.6702 4.19655 10.7993 4.32564C10.9284 4.45474 11.0009 4.62983 11.0009 4.81239C11.0009 4.99496 10.9284 5.17005 10.7993 5.29914L5.09713 10.9999Z" fill="#787878"/>
</g>
</svg>
