<svg width="17" height="17" viewBox="0 0 17 17" fill="none" xmlns="http://www.w3.org/2000/svg">
<rect width="17" height="17" fill="#F5F5F5"/>
<g clip-path="url(#clip0_0_1)">
<rect x="-209" y="-1452" width="375" height="2518" rx="36" fill="white"/>
<rect x="-18" y="-18" width="53" height="53" rx="18" fill="#F7FAFF"/>
<path fill-rule="evenodd" clip-rule="evenodd" d="M4.54651 0C3.26956 0 2.11484 0.370903 1.27671 1.27537C0.43063 2.18842 0 3.54432 0 5.28378V11.7162C0 13.4557 0.43063 14.8116 1.27671 15.7246C2.11484 16.6291 3.26956 17 4.54651 17H12.4535C13.7305 17 14.8852 16.6291 15.7233 15.7246C16.5694 14.8116 17 13.4557 17 11.7162V5.28378C17 3.54432 16.5694 2.18842 15.7233 1.27537C14.8852 0.370903 13.7305 0 12.4535 0H4.54651ZM14.2156 5.15725C14.4747 4.92452 14.5224 4.49169 14.3221 4.19051C14.1219 3.88931 13.7495 3.83382 13.4903 4.06656L9.10425 8.00525C8.74836 8.32495 8.25156 8.32495 7.89559 8.00525L3.50959 4.06656C3.25042 3.83382 2.878 3.88931 2.67774 4.19051C2.47748 4.49169 2.52523 4.92452 2.78439 5.15725L7.17044 9.09601C7.95355 9.79917 9.04637 9.79917 9.82948 9.09601L14.2156 5.15725Z" fill="#3391E7"/>
</g>
<defs>
<clipPath id="clip0_0_1">
<rect x="-209" y="-1452" width="375" height="2518" rx="36" fill="white"/>
</clipPath>
</defs>
</svg>
