<svg width="22" height="32" viewBox="0 0 22 32" fill="none" xmlns="http://www.w3.org/2000/svg">
<path d="M17.8164 7.49692L10.8539 11.7809L3.89136 7.49692V0H17.8164V7.49692Z" fill="#212529"/>
<path d="M15.1386 0V9.14624L10.854 11.7809L6.56934 9.14624V0H15.1386Z" fill="#DD051D"/>
<path d="M10.8539 11.7806L14.3299 9.63866C12.0654 8.91537 9.63179 8.91537 7.36731 9.63866L10.8539 11.7806Z" fill="#A60416"/>
<path d="M10.854 31.0586C16.6219 31.0586 21.2978 26.3835 21.2978 20.6164C21.2978 14.8494 16.6219 10.1743 10.854 10.1743C5.08601 10.1743 0.410156 14.8494 0.410156 20.6164C0.410156 26.3835 5.08601 31.0586 10.854 31.0586Z" fill="#FCCD1D"/>
<path d="M10.8539 28.3814C15.1429 28.3814 18.6198 24.905 18.6198 20.6167C18.6198 16.3284 15.1429 12.8521 10.8539 12.8521C6.56493 12.8521 3.08801 16.3284 3.08801 20.6167C3.08801 24.905 6.56493 28.3814 10.8539 28.3814Z" fill="#F9A215"/>
<path d="M11.9947 21.7572V16.0649H9.71848C9.71848 16.518 9.53847 16.9525 9.21807 17.2728C8.89766 17.5932 8.4631 17.7732 8.00998 17.7732H7.44226V20.049H9.71848V21.7572C9.71706 22.0588 9.59625 22.3476 9.38246 22.5603C9.16867 22.7731 8.87932 22.8925 8.57769 22.8925H7.44226V25.1683H14.2709V22.8925H13.1301C12.829 22.8925 12.5402 22.7729 12.3273 22.56C12.1143 22.3471 11.9947 22.0583 11.9947 21.7572Z" fill="#FCCD1D"/>
</svg>
