<svg width="17" height="17" viewBox="0 0 17 17" fill="none" xmlns="http://www.w3.org/2000/svg">
<rect width="17" height="17" fill="#F5F5F5"/>
<g clip-path="url(#clip0_0_1)">
<rect x="-294" y="-659" width="375" height="812" rx="36" fill="white"/>
<g filter="url(#filter0_d_0_1)">
<rect x="-263" y="21" width="326" height="63" rx="20" fill="url(#paint0_linear_0_1)"/>
</g>
<rect x="-294" y="-43" width="375" height="196" fill="white"/>
<g filter="url(#filter1_d_0_1)">
<rect x="-20" y="-18" width="53" height="53" rx="12" fill="url(#paint1_linear_0_1)"/>
</g>
<path d="M5.78472 0H1.65278C0.739974 0 0 0.814028 0 1.81818V8.18182C0 9.18597 0.739974 10 1.65278 10H5.78472C6.69753 10 7.4375 9.18597 7.4375 8.18182V1.81818C7.4375 0.814028 6.69753 0 5.78472 0Z" fill="white"/>
<path d="M15.3472 0H11.2153C10.3025 0 9.5625 0.767512 9.5625 1.71429V4.28571C9.5625 5.23249 10.3025 6 11.2153 6H15.3472C16.26 6 17 5.23249 17 4.28571V1.71429C17 0.767512 16.26 0 15.3472 0Z" fill="white"/>
<path d="M5.78472 11H1.65278C0.739974 11 0 11.7675 0 12.7143V15.2857C0 16.2325 0.739974 17 1.65278 17H5.78472C6.69753 17 7.4375 16.2325 7.4375 15.2857V12.7143C7.4375 11.7675 6.69753 11 5.78472 11Z" fill="white"/>
<path d="M15.3472 8H11.2153C10.3025 8 9.5625 8.73262 9.5625 9.63636V15.3636C9.5625 16.2674 10.3025 17 11.2153 17H15.3472C16.26 17 17 16.2674 17 15.3636V9.63636C17 8.73262 16.26 8 15.3472 8Z" fill="white"/>
</g>
<defs>
<filter id="filter0_d_0_1" x="-270" y="16" width="340" height="77" filterUnits="userSpaceOnUse" color-interpolation-filters="sRGB">
<feFlood flood-opacity="0" result="BackgroundImageFix"/>
<feColorMatrix in="SourceAlpha" type="matrix" values="0 0 0 0 0 0 0 0 0 0 0 0 0 0 0 0 0 0 127 0" result="hardAlpha"/>
<feOffset dy="2"/>
<feGaussianBlur stdDeviation="3.5"/>
<feComposite in2="hardAlpha" operator="out"/>
<feColorMatrix type="matrix" values="0 0 0 0 0 0 0 0 0 0 0 0 0 0 0 0 0 0 0.1 0"/>
<feBlend mode="normal" in2="BackgroundImageFix" result="effect1_dropShadow_0_1"/>
<feBlend mode="normal" in="SourceGraphic" in2="effect1_dropShadow_0_1" result="shape"/>
</filter>
<filter id="filter1_d_0_1" x="-28" y="-24" width="69" height="69" filterUnits="userSpaceOnUse" color-interpolation-filters="sRGB">
<feFlood flood-opacity="0" result="BackgroundImageFix"/>
<feColorMatrix in="SourceAlpha" type="matrix" values="0 0 0 0 0 0 0 0 0 0 0 0 0 0 0 0 0 0 127 0" result="hardAlpha"/>
<feMorphology radius="2" operator="erode" in="SourceAlpha" result="effect1_dropShadow_0_1"/>
<feOffset dy="2"/>
<feGaussianBlur stdDeviation="5"/>
<feComposite in2="hardAlpha" operator="out"/>
<feColorMatrix type="matrix" values="0 0 0 0 0 0 0 0 0 0 0 0 0 0 0 0 0 0 0.13 0"/>
<feBlend mode="normal" in2="BackgroundImageFix" result="effect1_dropShadow_0_1"/>
<feBlend mode="normal" in="SourceGraphic" in2="effect1_dropShadow_0_1" result="shape"/>
</filter>
<linearGradient id="paint0_linear_0_1" x1="-263" y1="52.5" x2="63" y2="52.5" gradientUnits="userSpaceOnUse">
<stop stop-color="#bc242c"/>
<stop offset="1" stop-color="#bc242c"/>
</linearGradient>
<linearGradient id="paint1_linear_0_1" x1="6.5" y1="-18" x2="6.5" y2="35" gradientUnits="userSpaceOnUse">
<stop stop-color="#bc242c"/>
<stop offset="1" stop-color=""/>
</linearGradient>
<clipPath id="clip0_0_1">
<rect x="-294" y="-659" width="375" height="812" rx="36" fill="white"/>
</clipPath>
</defs>
</svg>
