<svg width="17" height="17" viewBox="0 0 17 17" fill="none" xmlns="http://www.w3.org/2000/svg">
<rect width="17" height="17" fill="#F5F5F5"/>
<g clip-path="url(#clip0_0_1)">
<rect x="-58" y="-1453" width="375" height="2518" rx="36" fill="white"/>
<rect x="-18" y="-18" width="53" height="53" rx="18" fill="#F7FAFF"/>
<path d="M5.47496 3.68649L6.06348 4.74088C6.5946 5.6924 6.38141 6.94065 5.54488 7.77703C5.54488 7.77703 4.53032 8.79159 6.36989 10.6309C8.2089 12.4697 9.22426 11.4558 9.22426 11.4558C10.0608 10.6194 11.3092 10.4063 12.2609 10.9373L13.3154 11.5257C14.7525 12.3276 14.9222 14.3426 13.6591 15.6055C12.9001 16.3644 11.9703 16.9549 10.9424 16.9938C9.21211 17.0595 6.27359 16.6216 3.32591 13.6744C0.37826 10.7272 -0.0596572 7.7892 0.00594149 6.05916C0.0449071 5.03146 0.635495 4.1018 1.3945 3.34292C2.65765 2.07998 4.67295 2.24967 5.47496 3.68649Z" fill="#209FA6"/>
<path d="M8.39654 0.571047C8.45657 0.200321 8.80706 -0.0511607 9.17785 0.00885142C9.20079 0.0132487 9.2747 0.0270482 9.31333 0.0356615C9.39077 0.0528972 9.49868 0.0794172 9.63325 0.118612C9.90239 0.196984 10.2784 0.326103 10.7296 0.53294C11.633 0.947069 12.8353 1.67149 14.0829 2.91888C15.3305 4.16627 16.055 5.36834 16.4691 6.27163C16.6761 6.72281 16.8052 7.09871 16.8836 7.36779C16.9227 7.50235 16.9493 7.61027 16.9665 7.68762C16.9751 7.72631 16.9815 7.75738 16.9858 7.78032L16.9911 7.80861C17.051 8.1793 16.8019 8.54432 16.4311 8.60435C16.0614 8.66419 15.713 8.41386 15.6516 8.04493C15.6497 8.03496 15.6444 8.0084 15.6389 7.98328C15.6276 7.93305 15.6083 7.85343 15.5777 7.74811C15.5163 7.53746 15.4097 7.22436 15.2327 6.83842C14.8792 6.06747 14.2436 5.00288 13.121 3.88055C11.9986 2.75822 10.9338 2.12266 10.1627 1.76921C9.77671 1.59227 9.46359 1.48571 9.25284 1.42435C9.14756 1.39367 9.01517 1.36329 8.96493 1.35211C8.59586 1.29061 8.33669 0.940713 8.39654 0.571047Z" fill="#209FA6"/>
<path fill-rule="evenodd" clip-rule="evenodd" d="M8.60165 3.69845C8.70484 3.33734 9.08126 3.12825 9.44244 3.23142L9.25564 3.88526C9.44244 3.23142 9.44244 3.23142 9.44244 3.23142L9.4438 3.2318L9.44516 3.2322L9.44815 3.23307L9.45523 3.23518L9.47318 3.24076C9.48679 3.24513 9.50392 3.25083 9.52424 3.25805C9.56495 3.27251 9.61882 3.29305 9.68483 3.32134C9.81695 3.37795 9.99741 3.46537 10.2192 3.59657C10.663 3.85922 11.2689 4.29549 11.9808 5.00719C12.6926 5.71891 13.1289 6.32472 13.3916 6.76851C13.5228 6.9902 13.6102 7.17068 13.6669 7.30277C13.6952 7.36877 13.7158 7.42259 13.7302 7.46331C13.7375 7.48367 13.7431 7.50074 13.7475 7.51441L13.7531 7.53235L13.7551 7.53938L13.756 7.5424L13.7564 7.5438C13.7564 7.5438 13.7569 7.5451 13.1029 7.73191L13.7569 7.5451C13.8601 7.9062 13.6509 8.28255 13.2898 8.38573C12.9317 8.488 12.5585 8.28336 12.4516 7.92789L12.4482 7.91811C12.4434 7.90449 12.4335 7.87767 12.4167 7.8385C12.3831 7.76022 12.3223 7.63217 12.2211 7.46118C12.0189 7.1196 11.6537 6.60348 11.0189 5.96886C10.3843 5.33424 9.86801 4.96912 9.52641 4.76696C9.35539 4.66576 9.22735 4.60492 9.149 4.57138C9.10982 4.55459 9.08298 4.54458 9.06938 4.53975L9.05959 4.53641C8.70412 4.42953 8.49936 4.05648 8.60165 3.69845Z" fill="#209FA6"/>
</g>
<defs>
<clipPath id="clip0_0_1">
<rect x="-58" y="-1453" width="375" height="2518" rx="36" fill="white"/>
</clipPath>
</defs>
</svg>
