<svg width="17" height="17" viewBox="0 0 17 17" fill="none" xmlns="http://www.w3.org/2000/svg">
<rect width="17" height="17" fill="#019DDC"/>
<g clip-path="url(#clip0_0_1)">
<rect x="-59" y="-659" width="375" height="812" rx="36" fill="white"/>
<g filter="url(#filter0_d_0_1)">
<rect x="-28" y="21" width="326" height="63" rx="20" fill="url(#paint0_linear_0_1)"/>
</g>
<rect x="-59" y="-43" width="375" height="196" fill="white"/>
<g filter="url(#filter1_d_0_1)">
<rect x="-18" y="-18" width="53" height="53" rx="12" fill="url(#paint1_linear_0_1)"/>
</g>
<g clip-path="url(#clip1_0_1)">
<path fill-rule="evenodd" clip-rule="evenodd" d="M12.75 5.3125H4.25C3.95622 5.3125 3.71875 5.07503 3.71875 4.78125C3.71875 4.488 3.95622 4.25 4.25 4.25H12.75C13.0438 4.25 13.2812 4.488 13.2812 4.78125C13.2812 5.07503 13.0438 5.3125 12.75 5.3125ZM12.75 8.5H4.25C3.95622 8.5 3.71875 8.26253 3.71875 7.96875C3.71875 7.6755 3.95622 7.4375 4.25 7.4375H12.75C13.0438 7.4375 13.2812 7.6755 13.2812 7.96875C13.2812 8.26253 13.0438 8.5 12.75 8.5ZM12.75 11.6875H4.25C3.95622 11.6875 3.71875 11.45 3.71875 11.1562C3.71875 10.863 3.95622 10.625 4.25 10.625H12.75C13.0438 10.625 13.2812 10.863 13.2812 11.1562C13.2812 11.45 13.0438 11.6875 12.75 11.6875ZM14.875 0H2.125C0.959437 0 0 1.04603 0 2.21266V14.8872C0 16.0544 0.945093 17 2.11119 17H14.7778C15.9439 17 17 16.0416 17 14.875V2.125C17 0.958375 16.0406 0 14.875 0Z" fill="white"/>
</g>
</g>
<defs>
<filter id="filter0_d_0_1" x="-35" y="16" width="340" height="77" filterUnits="userSpaceOnUse" color-interpolation-filters="sRGB">
<feFlood flood-opacity="0" result="BackgroundImageFix"/>
<feColorMatrix in="SourceAlpha" type="matrix" values="0 0 0 0 0 0 0 0 0 0 0 0 0 0 0 0 0 0 127 0" result="hardAlpha"/>
<feOffset dy="2"/>
<feGaussianBlur stdDeviation="3.5"/>
<feComposite in2="hardAlpha" operator="out"/>
<feColorMatrix type="matrix" values="0 0 0 0 0 0 0 0 0 0 0 0 0 0 0 0 0 0 0.1 0"/>
<feBlend mode="normal" in2="BackgroundImageFix" result="effect1_dropShadow_0_1"/>
<feBlend mode="normal" in="SourceGraphic" in2="effect1_dropShadow_0_1" result="shape"/>
</filter>
<filter id="filter1_d_0_1" x="-26" y="-24" width="69" height="69" filterUnits="userSpaceOnUse" color-interpolation-filters="sRGB">
<feFlood flood-opacity="0" result="BackgroundImageFix"/>
<feColorMatrix in="SourceAlpha" type="matrix" values="0 0 0 0 0 0 0 0 0 0 0 0 0 0 0 0 0 0 127 0" result="hardAlpha"/>
<feMorphology radius="2" operator="erode" in="SourceAlpha" result="effect1_dropShadow_0_1"/>
<feOffset dy="2"/>
<feGaussianBlur stdDeviation="5"/>
<feComposite in2="hardAlpha" operator="out"/>
<feColorMatrix type="matrix" values="0 0 0 0 0 0 0 0 0 0 0 0 0 0 0 0 0 0 0.13 0"/>
<feBlend mode="normal" in2="BackgroundImageFix" result="effect1_dropShadow_0_1"/>
<feBlend mode="normal" in="SourceGraphic" in2="effect1_dropShadow_0_1" result="shape"/>
</filter>
<linearGradient id="paint0_linear_0_1" x1="-28" y1="52.5" x2="298" y2="52.5" gradientUnits="userSpaceOnUse">
<stop stop-color="#019DDC"/>
<stop offset="1" stop-color="#019DDC"/>
</linearGradient>
<linearGradient id="paint1_linear_0_1" x1="8.5" y1="-18" x2="8.5" y2="35" gradientUnits="userSpaceOnUse">
<stop stop-color="#019DDC"/>
<stop offset="1" stop-color="#019DDC"/>
</linearGradient>
<clipPath id="clip0_0_1">
<rect x="-59" y="-659" width="375" height="812" rx="36" fill="white"/>
</clipPath>
<clipPath id="clip1_0_1">
<rect width="17" height="17" fill="white"/>
</clipPath>
</defs>
</svg>
