<svg width="35" height="34" viewBox="0 0 35 34" fill="none" xmlns="http://www.w3.org/2000/svg">
<path d="M24.0218 8.86417L17.0109 13.2098L10 8.86417V1.25928H24.0218V8.86417Z" fill="#212529"/>
<path d="M21.3253 1.25928V10.5373L17.0109 13.2098L12.6965 10.5373V1.25928H21.3253Z" fill="#DD051D"/>
<path d="M17.0108 13.2099L20.5109 11.0371C18.2307 10.3034 15.7802 10.3034 13.5 11.0371L17.0108 13.2099Z" fill="#A60416"/>
<path d="M17.5 32.4062C23.3896 32.4062 28.1641 27.7682 28.1641 22.0469C28.1641 16.3256 23.3896 11.6875 17.5 11.6875C11.6104 11.6875 6.83594 16.3256 6.83594 22.0469C6.83594 27.7682 11.6104 32.4062 17.5 32.4062Z" fill="#BEBEBE"/>
<path d="M17.5 29.75C21.8794 29.75 25.4297 26.3012 25.4297 22.0469C25.4297 17.7926 21.8794 14.3438 17.5 14.3438C13.1206 14.3438 9.57031 17.7926 9.57031 22.0469C9.57031 26.3012 13.1206 29.75 17.5 29.75Z" fill="#888888"/>
<path d="M18.5281 17.8342C17.9832 17.6896 17.4106 17.6735 16.858 17.7872C16.3054 17.9008 15.7886 18.141 15.3508 18.4876C14.968 18.8101 14.6618 19.2093 14.4532 19.6578C14.2445 20.1062 14.1384 20.5933 14.1422 21.0854H16.4062C16.4062 19.8954 18.2492 19.8211 18.5937 20.5542C19.1406 21.6698 14.2187 24.273 14.2187 24.273V26.398H20.7812V24.273H18.5937C19.3579 23.928 19.9851 23.3501 20.3799 22.627C20.7748 21.9039 20.9157 21.0753 20.7812 20.2673C20.6586 19.7053 20.3858 19.1846 19.9903 18.7575C19.5948 18.3304 19.0905 18.012 18.5281 17.8342Z" fill="#A8A8A8"/>
</svg>
