<svg width="20" height="20" viewBox="0 0 20 20" fill="none" xmlns="http://www.w3.org/2000/svg">
<g id="share-svgrepo-com 1">
<path id="Vector" d="M7.50016 9.99984C7.50016 11.1504 6.56742 12.0832 5.41683 12.0832C4.26624 12.0832 3.3335 11.1504 3.3335 9.99984C3.3335 8.84925 4.26624 7.9165 5.41683 7.9165C6.56742 7.9165 7.50016 8.84925 7.50016 9.99984Z" stroke="white"/>
<path id="Vector_2" d="M11.6667 5.4165L7.5 8.33317" stroke="white" stroke-linecap="round"/>
<path id="Vector_3" d="M11.6667 14.5832L7.5 11.6665" stroke="white" stroke-linecap="round"/>
<path id="Vector_4" d="M15.8332 15.4168C15.8332 16.5674 14.9004 17.5002 13.7498 17.5002C12.5993 17.5002 11.6665 16.5674 11.6665 15.4168C11.6665 14.2662 12.5993 13.3335 13.7498 13.3335C14.9004 13.3335 15.8332 14.2662 15.8332 15.4168Z" stroke="white"/>
<path id="Vector_5" d="M15.8332 4.58333C15.8332 5.73392 14.9004 6.66667 13.7498 6.66667C12.5993 6.66667 11.6665 5.73392 11.6665 4.58333C11.6665 3.43274 12.5993 2.5 13.7498 2.5C14.9004 2.5 15.8332 3.43274 15.8332 4.58333Z" stroke="white"/>
</g>
</svg>
