<svg width="35" height="34" viewBox="0 0 35 34" fill="none" xmlns="http://www.w3.org/2000/svg">
<path d="M24.6094 9.03125L17.5 13.2812L10.3906 9.03125V1.59375H24.6094V9.03125Z" fill="#212529"/>
<path d="M21.875 1.59375V10.6675L17.5 13.2812L13.125 10.6675V1.59375H21.875Z" fill="#DD051D"/>
<path d="M17.5 13.2813L21.0492 11.1563C18.737 10.4388 16.2521 10.4388 13.9398 11.1563L17.5 13.2813Z" fill="#A60416"/>
<path d="M17.5 32.4062C23.3896 32.4062 28.1641 27.7682 28.1641 22.0469C28.1641 16.3256 23.3896 11.6875 17.5 11.6875C11.6104 11.6875 6.83594 16.3256 6.83594 22.0469C6.83594 27.7682 11.6104 32.4062 17.5 32.4062Z" fill="#FE9567"/>
<path d="M17.5 29.75C21.8794 29.75 25.4297 26.3012 25.4297 22.0469C25.4297 17.7926 21.8794 14.3438 17.5 14.3438C13.1206 14.3438 9.57031 17.7926 9.57031 22.0469C9.57031 26.3012 13.1206 29.75 17.5 29.75Z" fill="#9B664A"/>
<path d="M19.9828 22.0469C20.2846 21.8313 20.532 21.5519 20.7063 21.2297C20.8806 20.9076 20.9773 20.5512 20.989 20.1875C20.989 18.7213 19.425 17.5312 17.5 17.5312C15.575 17.5312 14.0164 18.7213 14.0164 20.1875H16.1601C16.1944 19.9468 16.3126 19.7247 16.495 19.5584C16.6774 19.392 16.913 19.2915 17.1624 19.2735C17.4119 19.2554 17.6602 19.321 17.866 19.4593C18.0717 19.5976 18.2224 19.8003 18.2929 20.0334C18.3859 20.6869 17.8718 21.4837 17.1992 21.4837V22.61C18.4132 22.61 18.7523 24.4694 17.5929 24.905C17.4297 24.9567 17.2562 24.9704 17.0865 24.9449C16.9168 24.9193 16.7557 24.8554 16.6161 24.7581C16.4766 24.6609 16.3626 24.5331 16.2834 24.3851C16.2042 24.2371 16.1619 24.0731 16.1601 23.9062H14.0164C14.0164 25.3725 15.575 26.5625 17.5 26.5625C19.425 26.5625 20.989 25.3725 20.989 23.9062C20.9773 23.5425 20.8806 23.1861 20.7063 22.864C20.532 22.5419 20.2846 22.2625 19.9828 22.0469Z" fill="#FE9567"/>
</svg>
