<svg width="19" height="19" viewBox="0 0 19 19" fill="none" xmlns="http://www.w3.org/2000/svg">
<rect width="19" height="19" fill="#F5F5F5"/>
<g clip-path="url(#clip0_0_1)">
<rect x="-140" y="-1293" width="375" height="2518" rx="36" fill="white"/>
<g filter="url(#filter0_d_0_1)">
<rect x="-17" y="-17" width="53" height="53" rx="12" fill="#F7FAFF"/>
</g>
<path fill-rule="evenodd" clip-rule="evenodd" d="M9.5494 1.05383e-06H9.4506C8.59702 -2.6416e-05 7.88528 -4.46992e-05 7.32024 0.0731717C6.72384 0.150463 6.18538 0.320474 5.75269 0.737531C5.31999 1.15459 5.1436 1.67359 5.06341 2.24843C5.00896 2.63884 4.99355 3.57243 4.9892 4.37289C3.06806 4.43337 1.91459 4.64953 1.11299 5.42216C1.13249e-07 6.49493 0 8.22155 0 11.6747C0 15.1278 1.13249e-07 16.8545 1.11299 17.9272C2.22598 19 4.01732 19 7.59998 19H11.4C14.9826 19 16.7741 19 17.887 17.9272C19 16.8545 19 15.1278 19 11.6747C19 8.22155 19 6.49493 17.887 5.42216C17.0854 4.64953 15.932 4.43337 14.0108 4.37289C14.0064 3.57243 13.991 2.63884 13.9366 2.24843C13.8564 1.67359 13.68 1.15459 13.2473 0.737531C12.8146 0.320474 12.2762 0.150463 11.6798 0.0731717C11.1147 -4.46992e-05 10.403 -2.6416e-05 9.5494 1.05383e-06ZM12.5855 4.35112C12.5812 3.57587 12.5675 2.74156 12.5243 2.43145C12.4653 2.0089 12.3635 1.82807 12.2397 1.70874C12.1159 1.58941 11.9283 1.49123 11.4899 1.43442C11.031 1.37496 10.4158 1.37349 9.5 1.37349C8.5842 1.37349 7.96898 1.37496 7.51012 1.43442C7.07173 1.49123 6.88412 1.58941 6.76031 1.70874C6.63651 1.82807 6.53465 2.0089 6.47571 2.43145C6.43245 2.74156 6.41878 3.57587 6.41448 4.35112C6.78632 4.3494 7.18091 4.3494 7.6 4.3494H11.4C11.8191 4.3494 12.2137 4.3494 12.5855 4.35112ZM9.5 7.3253C9.89349 7.3253 10.2125 7.63277 10.2125 8.01205V8.02139C11.2469 8.27255 12.1125 9.05865 12.1125 10.1486C12.1125 10.5278 11.7935 10.8353 11.4 10.8353C11.0065 10.8353 10.6875 10.5278 10.6875 10.1486C10.6875 9.79695 10.283 9.30927 9.5 9.30927C8.71701 9.30927 8.3125 9.79695 8.3125 10.1486C8.3125 10.5003 8.71701 10.988 9.5 10.988C10.8157 10.988 12.1125 11.8668 12.1125 13.2008C12.1125 14.2907 11.2469 15.0768 10.2125 15.328V15.3373C10.2125 15.7166 9.89349 16.0241 9.5 16.0241C9.10651 16.0241 8.7875 15.7166 8.7875 15.3373V15.328C7.75314 15.0768 6.8875 14.2907 6.8875 13.2008C6.8875 12.8216 7.2065 12.5141 7.6 12.5141C7.99349 12.5141 8.3125 12.8216 8.3125 13.2008C8.3125 13.5524 8.71701 14.0401 9.5 14.0401C10.283 14.0401 10.6875 13.5524 10.6875 13.2008C10.6875 12.8491 10.283 12.3614 9.5 12.3614C8.18435 12.3614 6.8875 11.4827 6.8875 10.1486C6.8875 9.05865 7.75314 8.27255 8.7875 8.02139V8.01205C8.7875 7.63277 9.10651 7.3253 9.5 7.3253Z" fill="#209FA6"/>
</g>
<defs>
<filter id="filter0_d_0_1" x="-25" y="-23" width="69" height="69" filterUnits="userSpaceOnUse" color-interpolation-filters="sRGB">
<feFlood flood-opacity="0" result="BackgroundImageFix"/>
<feColorMatrix in="SourceAlpha" type="matrix" values="0 0 0 0 0 0 0 0 0 0 0 0 0 0 0 0 0 0 127 0" result="hardAlpha"/>
<feMorphology radius="2" operator="erode" in="SourceAlpha" result="effect1_dropShadow_0_1"/>
<feOffset dy="2"/>
<feGaussianBlur stdDeviation="5"/>
<feComposite in2="hardAlpha" operator="out"/>
<feColorMatrix type="matrix" values="0 0 0 0 0 0 0 0 0 0 0 0 0 0 0 0 0 0 0.13 0"/>
<feBlend mode="normal" in2="BackgroundImageFix" result="effect1_dropShadow_0_1"/>
<feBlend mode="normal" in="SourceGraphic" in2="effect1_dropShadow_0_1" result="shape"/>
</filter>
<clipPath id="clip0_0_1">
<rect x="-140" y="-1293" width="375" height="2518" rx="36" fill="white"/>
</clipPath>
</defs>
</svg>
