<svg width="19" height="19" viewBox="0 0 19 19" fill="none" xmlns="http://www.w3.org/2000/svg">
<rect width="19" height="19" fill="#F5F5F5"/>
<g clip-path="url(#clip0_0_1)">
<rect x="-57" y="-1292" width="375" height="2518" rx="36" fill="white"/>
<path d="M8.76371 6.39107C8.89365 6.39042 9.02144 6.3578 9.13579 6.29607L9.49996 6.10607L9.86413 6.29607C9.99459 6.36432 10.1415 6.39483 10.2883 6.38418C10.4352 6.37354 10.5762 6.32215 10.6954 6.23579C10.8147 6.14944 10.9075 6.03154 10.9634 5.89535C11.0193 5.75916 11.0362 5.61006 11.012 5.46482L10.9408 5.06107L11.2416 4.76816C11.3462 4.66458 11.4198 4.5339 11.4542 4.3908C11.4886 4.24771 11.4824 4.09785 11.4364 3.95807C11.3903 3.81828 11.3062 3.6941 11.1935 3.59947C11.0808 3.50483 10.9439 3.44349 10.7983 3.42232L10.3945 3.37482L10.2125 3.00274C10.1476 2.86889 10.0464 2.75601 9.9204 2.67703C9.79439 2.59804 9.64868 2.55615 9.49996 2.55615C9.35124 2.55615 9.20553 2.59804 9.07951 2.67703C8.9535 2.75601 8.85228 2.86889 8.78746 3.00274L8.60538 3.37482L8.20163 3.43816C8.05598 3.45932 7.91912 3.52066 7.80641 3.6153C7.6937 3.70994 7.6096 3.83412 7.56355 3.9739C7.5175 4.11369 7.51133 4.26354 7.54573 4.40664C7.58013 4.54973 7.65374 4.68041 7.75829 4.78399L8.05913 5.06899L7.98788 5.48066C7.95877 5.62831 7.97235 5.78121 8.02703 5.92142C8.08172 6.06164 8.17523 6.18336 8.29662 6.27232C8.43788 6.35546 8.5999 6.39665 8.76371 6.39107Z" fill="#3391E7"/>
<path d="M13.4584 12.875H16.625C16.835 12.875 17.0364 12.9584 17.1848 13.1069C17.3333 13.2553 17.4167 13.4567 17.4167 13.6667V17.625C17.4167 17.835 17.3333 18.0363 17.1848 18.1848C17.0364 18.3333 16.835 18.4167 16.625 18.4167H13.4584C13.2484 18.4167 13.047 18.3333 12.8986 18.1848C12.7501 18.0363 12.6667 17.835 12.6667 17.625V13.6667C12.6667 13.4567 12.7501 13.2553 12.8986 13.1069C13.047 12.9584 13.2484 12.875 13.4584 12.875ZM7.12504 8.91667V17.625C7.12504 17.835 7.20845 18.0363 7.35691 18.1848C7.50538 18.3333 7.70674 18.4167 7.91671 18.4167H11.0834C11.2933 18.4167 11.4947 18.3333 11.6432 18.1848C11.7916 18.0363 11.875 17.835 11.875 17.625V8.91667C11.875 8.7067 11.7916 8.50534 11.6432 8.35687C11.4947 8.20841 11.2933 8.125 11.0834 8.125H7.91671C7.70674 8.125 7.50538 8.20841 7.35691 8.35687C7.20845 8.50534 7.12504 8.7067 7.12504 8.91667ZM1.58337 12.0833V17.625C1.58337 17.835 1.66678 18.0363 1.81525 18.1848C1.96371 18.3333 2.16508 18.4167 2.37504 18.4167H5.54171C5.75167 18.4167 5.95303 18.3333 6.1015 18.1848C6.24997 18.0363 6.33337 17.835 6.33337 17.625V12.0833C6.33337 11.8734 6.24997 11.672 6.1015 11.5235C5.95303 11.3751 5.75167 11.2917 5.54171 11.2917H2.37504C2.16508 11.2917 1.96371 11.3751 1.81525 11.5235C1.66678 11.672 1.58337 11.8734 1.58337 12.0833Z" fill="#3391E7"/>
<g filter="url(#filter0_d_0_1)">
<rect x="-17" y="-16" width="53" height="53" rx="12" fill="#F7FAFF"/>
</g>
<path d="M8.76371 5.39107C8.89365 5.39042 9.02144 5.3578 9.13579 5.29607L9.49996 5.10607L9.86413 5.29607C9.99459 5.36432 10.1415 5.39483 10.2883 5.38418C10.4352 5.37354 10.5762 5.32215 10.6954 5.23579C10.8147 5.14944 10.9075 5.03154 10.9634 4.89535C11.0193 4.75916 11.0362 4.61006 11.012 4.46482L10.9408 4.06107L11.2416 3.76816C11.3462 3.66458 11.4198 3.5339 11.4542 3.3908C11.4886 3.24771 11.4824 3.09785 11.4364 2.95807C11.3903 2.81828 11.3062 2.6941 11.1935 2.59947C11.0808 2.50483 10.9439 2.44349 10.7983 2.42232L10.3945 2.37482L10.2125 2.00274C10.1476 1.86889 10.0464 1.75601 9.9204 1.67703C9.79439 1.59804 9.64868 1.55615 9.49996 1.55615C9.35124 1.55615 9.20553 1.59804 9.07951 1.67703C8.9535 1.75601 8.85228 1.86889 8.78746 2.00274L8.60538 2.37482L8.20163 2.43816C8.05598 2.45932 7.91912 2.52066 7.80641 2.6153C7.6937 2.70994 7.6096 2.83412 7.56355 2.9739C7.5175 3.11369 7.51133 3.26354 7.54573 3.40664C7.58013 3.54973 7.65374 3.68041 7.75829 3.78399L8.05913 4.06899L7.98788 4.48066C7.95877 4.62831 7.97235 4.78121 8.02703 4.92142C8.08172 5.06164 8.17523 5.18336 8.29662 5.27232C8.43788 5.35546 8.5999 5.39665 8.76371 5.39107Z" fill="#3391E7"/>
<path d="M13.4584 11.875H16.625C16.835 11.875 17.0364 11.9584 17.1848 12.1069C17.3333 12.2553 17.4167 12.4567 17.4167 12.6667V16.625C17.4167 16.835 17.3333 17.0363 17.1848 17.1848C17.0364 17.3333 16.835 17.4167 16.625 17.4167H13.4584C13.2484 17.4167 13.047 17.3333 12.8986 17.1848C12.7501 17.0363 12.6667 16.835 12.6667 16.625V12.6667C12.6667 12.4567 12.7501 12.2553 12.8986 12.1069C13.047 11.9584 13.2484 11.875 13.4584 11.875ZM7.12504 7.91667V16.625C7.12504 16.835 7.20845 17.0363 7.35691 17.1848C7.50538 17.3333 7.70674 17.4167 7.91671 17.4167H11.0834C11.2933 17.4167 11.4947 17.3333 11.6432 17.1848C11.7916 17.0363 11.875 16.835 11.875 16.625V7.91667C11.875 7.7067 11.7916 7.50534 11.6432 7.35687C11.4947 7.20841 11.2933 7.125 11.0834 7.125H7.91671C7.70674 7.125 7.50538 7.20841 7.35691 7.35687C7.20845 7.50534 7.12504 7.7067 7.12504 7.91667ZM1.58337 11.0833V16.625C1.58337 16.835 1.66678 17.0363 1.81525 17.1848C1.96371 17.3333 2.16508 17.4167 2.37504 17.4167H5.54171C5.75167 17.4167 5.95303 17.3333 6.1015 17.1848C6.24997 17.0363 6.33337 16.835 6.33337 16.625V11.0833C6.33337 10.8734 6.24997 10.672 6.1015 10.5235C5.95303 10.3751 5.75167 10.2917 5.54171 10.2917H2.37504C2.16508 10.2917 1.96371 10.3751 1.81525 10.5235C1.66678 10.672 1.58337 10.8734 1.58337 11.0833Z" fill="#3391E7"/>
</g>
<defs>
<filter id="filter0_d_0_1" x="-25" y="-22" width="69" height="69" filterUnits="userSpaceOnUse" color-interpolation-filters="sRGB">
<feFlood flood-opacity="0" result="BackgroundImageFix"/>
<feColorMatrix in="SourceAlpha" type="matrix" values="0 0 0 0 0 0 0 0 0 0 0 0 0 0 0 0 0 0 127 0" result="hardAlpha"/>
<feMorphology radius="2" operator="erode" in="SourceAlpha" result="effect1_dropShadow_0_1"/>
<feOffset dy="2"/>
<feGaussianBlur stdDeviation="5"/>
<feComposite in2="hardAlpha" operator="out"/>
<feColorMatrix type="matrix" values="0 0 0 0 0 0 0 0 0 0 0 0 0 0 0 0 0 0 0.13 0"/>
<feBlend mode="normal" in2="BackgroundImageFix" result="effect1_dropShadow_0_1"/>
<feBlend mode="normal" in="SourceGraphic" in2="effect1_dropShadow_0_1" result="shape"/>
</filter>
<clipPath id="clip0_0_1">
<rect x="-57" y="-1292" width="375" height="2518" rx="36" fill="white"/>
</clipPath>
</defs>
</svg>
