<svg width="13" height="15" viewBox="0 0 13 15" fill="none" xmlns="http://www.w3.org/2000/svg">
<path d="M9.17734 0.416504H3.82234C1.14484 0.416504 0.479004 1.13192 0.479004 3.9865V11.9623C0.479004 13.8465 1.51317 14.2928 2.76692 12.9469L2.774 12.9398C3.35484 12.3236 4.24025 12.3732 4.74317 13.0461L5.45859 14.0023C6.03234 14.7603 6.96025 14.7603 7.534 14.0023L8.24942 13.0461C8.75942 12.3661 9.64484 12.3165 10.2257 12.9398C11.4865 14.2857 12.5136 13.8394 12.5136 11.9553V3.9865C12.5207 1.13192 11.8548 0.416504 9.17734 0.416504ZM8.44775 6.61442H4.55192C4.2615 6.61442 4.02067 6.37359 4.02067 6.08317C4.02067 5.79275 4.2615 5.55192 4.55192 5.55192H8.44775C8.73817 5.55192 8.979 5.79275 8.979 6.08317C8.979 6.37359 8.73817 6.61442 8.44775 6.61442Z" fill="white"/>
</svg>
