<svg width="20" height="20" viewBox="0 0 20 20" fill="none" xmlns="http://www.w3.org/2000/svg">
<g id="upload-svgrepo-com 1">
<path id="Vector" d="M14.1667 14.1668H14.175M13 11.6668H15C15.7766 11.6668 16.1648 11.6668 16.4712 11.7937C16.8795 11.9628 17.204 12.2873 17.3732 12.6957C17.5 13.002 17.5 13.3902 17.5 14.1668C17.5 14.9434 17.5 15.3317 17.3732 15.638C17.204 16.0463 16.8795 16.3708 16.4712 16.54C16.1648 16.6668 15.7766 16.6668 15 16.6668H5C4.22343 16.6668 3.83515 16.6668 3.52886 16.54C3.12048 16.3708 2.79603 16.0463 2.62687 15.638C2.5 15.3317 2.5 14.9434 2.5 14.1668C2.5 13.3902 2.5 13.002 2.62687 12.6957C2.79603 12.2873 3.12048 11.9628 3.52886 11.7937C3.83515 11.6668 4.22343 11.6668 5 11.6668H7M10 12.5002V3.3335M10 3.3335L12.5 5.8335M10 3.3335L7.5 5.8335" stroke="white" stroke-linecap="round" stroke-linejoin="round"/>
</g>
</svg>
