<svg width="20" height="20" viewBox="0 0 20 20" fill="none" xmlns="http://www.w3.org/2000/svg">
<rect width="20" height="20" fill="#F5F5F5"/>
<g clip-path="url(#clip0_0_1)">
<rect x="-223" y="-1293" width="375" height="2518" rx="36" fill="white"/>
<g filter="url(#filter0_d_0_1)">
<rect x="-17" y="-14" width="53" height="53" rx="12" fill="#F7FAFF"/>
</g>
<path d="M7.29175 2.9165V1.6665C7.29175 1.32484 7.00841 1.0415 6.66675 1.0415C6.32508 1.0415 6.04175 1.32484 6.04175 1.6665V2.9665C6.25008 2.9415 6.44175 2.9165 6.66675 2.9165H7.29175Z" fill="#FA5A7D"/>
<path d="M13.9583 2.9665V1.6665C13.9583 1.32484 13.6749 1.0415 13.3333 1.0415C12.9916 1.0415 12.7083 1.32484 12.7083 1.6665V2.9165H13.3333C13.5583 2.9165 13.7499 2.9415 13.9583 2.9665Z" fill="#FA5A7D"/>
<path d="M13.9583 2.9665V4.1665C13.9583 4.50817 13.675 4.7915 13.3333 4.7915C12.9917 4.7915 12.7083 4.50817 12.7083 4.1665V2.9165H7.29167V4.1665C7.29167 4.50817 7.00833 4.7915 6.66667 4.7915C6.325 4.7915 6.04167 4.50817 6.04167 4.1665V2.9665C3.58333 3.1915 2.5 4.77484 2.5 7.08317V14.1665C2.5 16.6665 3.75 18.3332 6.66667 18.3332H13.3333C16.25 18.3332 17.5 16.6665 17.5 14.1665V7.08317C17.5 4.77484 16.4167 3.1915 13.9583 2.9665ZM10 13.9582H6.66667C6.325 13.9582 6.04167 13.6748 6.04167 13.3332C6.04167 12.9915 6.325 12.7082 6.66667 12.7082H10C10.3417 12.7082 10.625 12.9915 10.625 13.3332C10.625 13.6748 10.3417 13.9582 10 13.9582ZM13.3333 9.7915H6.66667C6.325 9.7915 6.04167 9.50817 6.04167 9.1665C6.04167 8.82484 6.325 8.5415 6.66667 8.5415H13.3333C13.675 8.5415 13.9583 8.82484 13.9583 9.1665C13.9583 9.50817 13.675 9.7915 13.3333 9.7915Z" fill="#FA5A7D"/>
</g>
<defs>
<filter id="filter0_d_0_1" x="-25" y="-20" width="69" height="69" filterUnits="userSpaceOnUse" color-interpolation-filters="sRGB">
<feFlood flood-opacity="0" result="BackgroundImageFix"/>
<feColorMatrix in="SourceAlpha" type="matrix" values="0 0 0 0 0 0 0 0 0 0 0 0 0 0 0 0 0 0 127 0" result="hardAlpha"/>
<feMorphology radius="2" operator="erode" in="SourceAlpha" result="effect1_dropShadow_0_1"/>
<feOffset dy="2"/>
<feGaussianBlur stdDeviation="5"/>
<feComposite in2="hardAlpha" operator="out"/>
<feColorMatrix type="matrix" values="0 0 0 0 0 0 0 0 0 0 0 0 0 0 0 0 0 0 0.13 0"/>
<feBlend mode="normal" in2="BackgroundImageFix" result="effect1_dropShadow_0_1"/>
<feBlend mode="normal" in="SourceGraphic" in2="effect1_dropShadow_0_1" result="shape"/>
</filter>
<clipPath id="clip0_0_1">
<rect x="-223" y="-1293" width="375" height="2518" rx="36" fill="white"/>
</clipPath>
</defs>
</svg>
