<svg width="17" height="17" viewBox="0 0 17 17" fill="none" xmlns="http://www.w3.org/2000/svg">
<rect width="17" height="17" fill="#F5F5F5"/>
<g clip-path="url(#clip0_0_1)">
<rect x="-131" y="-1452" width="375" height="2518" rx="36" fill="white"/>
<path d="M4.49322 14.6107L4.77115 14.7485C5.92919 15.4377 7.22619 15.7593 8.52319 15.7593C12.5995 15.7593 15.9346 12.4512 15.9346 8.40799C15.9346 6.47826 15.1472 4.59448 13.7575 3.2161C12.3679 1.83772 10.515 1.05664 8.52319 1.05664C4.4469 1.05664 1.11175 4.36475 1.15807 8.45394C1.15807 9.83232 1.57496 11.1647 2.26979 12.3134L2.45507 12.5891L1.71393 15.2999L4.49322 14.6107Z" fill="#00E676"/>
<path d="M14.545 2.48108C12.97 0.872973 10.7929 0 8.56948 0C3.84469 0 0.0463215 3.81351 0.0926431 8.45405C0.0926431 9.92432 0.509537 11.3486 1.20436 12.6351L0 17L4.49319 15.8514C5.74387 16.5405 7.13351 16.8622 8.52316 16.8622C13.2016 16.8622 17 13.0486 17 8.40811C17 6.15676 16.1199 4.04324 14.545 2.48108ZM8.56948 15.4378C7.3188 15.4378 6.06812 15.1162 5.00273 14.473L4.7248 14.3351L2.03815 15.0243L2.73297 12.4054L2.54768 12.1297C0.509537 8.86757 1.48229 4.54865 4.81744 2.52703C8.15259 0.505405 12.4605 1.47027 14.4986 4.77838C16.5368 8.08649 15.564 12.3595 12.2289 14.3811C11.1635 15.0703 9.86648 15.4378 8.56948 15.4378ZM12.6458 10.3378L12.1362 10.1081C12.1362 10.1081 11.3951 9.78649 10.9319 9.55676C10.8856 9.55676 10.8392 9.51081 10.7929 9.51081C10.654 9.51081 10.5613 9.55676 10.4687 9.6027C10.4687 9.6027 10.4223 9.64865 9.77384 10.3838C9.72752 10.4757 9.63488 10.5216 9.54223 10.5216H9.49591C9.44959 10.5216 9.35695 10.4757 9.31063 10.4297L9.07902 10.3378C8.56948 10.1081 8.10627 9.83243 7.73569 9.46486C7.64305 9.37297 7.50409 9.28108 7.41144 9.18919C7.08719 8.86757 6.76294 8.5 6.53133 8.08649L6.48501 7.99459C6.43869 7.94865 6.43869 7.9027 6.39237 7.81081C6.39237 7.71892 6.39237 7.62703 6.43869 7.58108C6.43869 7.58108 6.62398 7.35135 6.76294 7.21351C6.85559 7.12162 6.90191 6.98378 6.99455 6.89189C7.08719 6.75405 7.13351 6.57027 7.08719 6.43243C7.04087 6.2027 6.48501 4.96216 6.34605 4.68649C6.25341 4.54865 6.16076 4.5027 6.0218 4.45676H5.88283C5.79019 4.45676 5.65123 4.45676 5.51226 4.45676C5.41962 4.45676 5.32698 4.5027 5.23433 4.5027L5.18801 4.54865C5.09537 4.59459 5.00272 4.68649 4.91008 4.73243C4.81744 4.82432 4.77112 4.91622 4.67847 5.00811C4.35422 5.42162 4.16894 5.92703 4.16894 6.43243C4.16894 6.8 4.26158 7.16757 4.40055 7.48919L4.44687 7.62703C4.86376 8.5 5.41962 9.28108 6.16076 9.97027L6.34605 10.1541C6.48501 10.2919 6.62398 10.3838 6.71662 10.5216C7.68937 11.3486 8.80109 11.9459 10.0518 12.2676C10.1907 12.3135 10.376 12.3135 10.515 12.3595C10.654 12.3595 10.8392 12.3595 10.9782 12.3595C11.2098 12.3595 11.4877 12.2676 11.673 12.1757C11.812 12.0838 11.9046 12.0838 11.9973 11.9919L12.0899 11.9C12.1826 11.8081 12.2752 11.7622 12.3678 11.6703C12.4605 11.5784 12.5531 11.4865 12.5995 11.3946C12.6921 11.2108 12.7384 10.9811 12.7847 10.7514C12.7847 10.6595 12.7847 10.5216 12.7847 10.4297C12.7847 10.4297 12.7384 10.3838 12.6458 10.3378Z" fill="white"/>
<rect x="-18" y="-18" width="53" height="53" rx="18" fill="#F7FAFF"/>
<path d="M4.49322 14.6107L4.77115 14.7485C5.92919 15.4377 7.22619 15.7593 8.52319 15.7593C12.5995 15.7593 15.9346 12.4512 15.9346 8.40799C15.9346 6.47826 15.1472 4.59448 13.7575 3.2161C12.3679 1.83772 10.515 1.05664 8.52319 1.05664C4.4469 1.05664 1.11175 4.36475 1.15807 8.45394C1.15807 9.83232 1.57496 11.1647 2.26979 12.3134L2.45507 12.5891L1.71393 15.2999L4.49322 14.6107Z" fill="#00E676"/>
<path d="M14.545 2.48108C12.97 0.872973 10.7929 0 8.56948 0C3.84469 0 0.0463215 3.81351 0.0926431 8.45405C0.0926431 9.92432 0.509537 11.3486 1.20436 12.6351L0 17L4.49319 15.8514C5.74387 16.5405 7.13351 16.8622 8.52316 16.8622C13.2016 16.8622 17 13.0486 17 8.40811C17 6.15676 16.1199 4.04324 14.545 2.48108ZM8.56948 15.4378C7.3188 15.4378 6.06812 15.1162 5.00273 14.473L4.7248 14.3351L2.03815 15.0243L2.73297 12.4054L2.54768 12.1297C0.509537 8.86757 1.48229 4.54865 4.81744 2.52703C8.15259 0.505405 12.4605 1.47027 14.4986 4.77838C16.5368 8.08649 15.564 12.3595 12.2289 14.3811C11.1635 15.0703 9.86648 15.4378 8.56948 15.4378ZM12.6458 10.3378L12.1362 10.1081C12.1362 10.1081 11.3951 9.78649 10.9319 9.55676C10.8856 9.55676 10.8392 9.51081 10.7929 9.51081C10.654 9.51081 10.5613 9.55676 10.4687 9.6027C10.4687 9.6027 10.4223 9.64865 9.77384 10.3838C9.72752 10.4757 9.63488 10.5216 9.54223 10.5216H9.49591C9.44959 10.5216 9.35695 10.4757 9.31063 10.4297L9.07902 10.3378C8.56948 10.1081 8.10627 9.83243 7.73569 9.46486C7.64305 9.37297 7.50409 9.28108 7.41144 9.18919C7.08719 8.86757 6.76294 8.5 6.53133 8.08649L6.48501 7.99459C6.43869 7.94865 6.43869 7.9027 6.39237 7.81081C6.39237 7.71892 6.39237 7.62703 6.43869 7.58108C6.43869 7.58108 6.62398 7.35135 6.76294 7.21351C6.85559 7.12162 6.90191 6.98378 6.99455 6.89189C7.08719 6.75405 7.13351 6.57027 7.08719 6.43243C7.04087 6.2027 6.48501 4.96216 6.34605 4.68649C6.25341 4.54865 6.16076 4.5027 6.0218 4.45676H5.88283C5.79019 4.45676 5.65123 4.45676 5.51226 4.45676C5.41962 4.45676 5.32698 4.5027 5.23433 4.5027L5.18801 4.54865C5.09537 4.59459 5.00272 4.68649 4.91008 4.73243C4.81744 4.82432 4.77112 4.91622 4.67847 5.00811C4.35422 5.42162 4.16894 5.92703 4.16894 6.43243C4.16894 6.8 4.26158 7.16757 4.40055 7.48919L4.44687 7.62703C4.86376 8.5 5.41962 9.28108 6.16076 9.97027L6.34605 10.1541C6.48501 10.2919 6.62398 10.3838 6.71662 10.5216C7.68937 11.3486 8.80109 11.9459 10.0518 12.2676C10.1907 12.3135 10.376 12.3135 10.515 12.3595C10.654 12.3595 10.8392 12.3595 10.9782 12.3595C11.2098 12.3595 11.4877 12.2676 11.673 12.1757C11.812 12.0838 11.9046 12.0838 11.9973 11.9919L12.0899 11.9C12.1826 11.8081 12.2752 11.7622 12.3678 11.6703C12.4605 11.5784 12.5531 11.4865 12.5995 11.3946C12.6921 11.2108 12.7384 10.9811 12.7847 10.7514C12.7847 10.6595 12.7847 10.5216 12.7847 10.4297C12.7847 10.4297 12.7384 10.3838 12.6458 10.3378Z" fill="white"/>
</g>
<defs>
<clipPath id="clip0_0_1">
<rect x="-131" y="-1452" width="375" height="2518" rx="36" fill="white"/>
</clipPath>
</defs>
</svg>
